<svg version="1.1" id="Layer_1" xmlns="http://www.w3.org/2000/svg" xmlns:xlink="http://www.w3.org/1999/xlink" x="0px" y="0px"
	 width="100%" viewBox="0 0 1024 1024" enable-background="new 0 0 1024 1024" xml:space="preserve">
<path fill="#000000" opacity="1.000000" stroke="none" 
	d="
M524.017456,673.977173 
	C526.681396,676.932678 527.694336,673.589294 528.789856,672.443298 
	C538.248535,662.548462 548.205139,653.184448 558.942505,644.715698 
	C594.518738,616.656250 634.664917,597.762024 678.221619,585.854187 
	C704.437134,578.687134 731.084717,573.888611 758.187988,571.701965 
	C759.497559,571.596313 760.888245,571.745300 761.924805,570.435791 
	C761.729065,567.667786 759.280273,566.379089 757.766357,564.529541 
	C752.278931,557.825867 746.604553,551.275513 741.097656,544.587463 
	C739.878784,543.107117 736.938354,541.462891 739.581177,539.342468 
	C741.651794,537.680969 744.487488,536.232666 747.392883,538.238220 
	C748.070007,538.705627 748.676453,539.313049 749.209900,539.945129 
	C758.989258,551.531677 768.756592,563.128357 778.511292,574.735718 
	C779.352905,575.737183 780.286804,576.732971 780.247192,579.092834 
	C691.914368,583.069458 610.942993,607.758728 542.310669,665.828247 
	C551.254028,660.724243 559.910645,655.065552 569.107300,650.294739 
	C607.621033,630.315674 648.436523,617.809143 691.322327,611.517151 
	C721.779785,607.048584 752.314087,606.251221 782.979004,607.803528 
	C789.102600,608.113525 793.156250,614.453003 790.951599,620.356567 
	C789.977600,622.964600 787.664124,622.226562 785.799377,622.052917 
	C774.687012,621.017944 763.567261,620.314636 752.396912,620.304504 
	C682.753418,620.241272 617.750610,637.772888 557.042480,671.672913 
	C555.264587,672.665710 553.617798,673.657227 552.996460,675.815613 
	C551.177917,682.131531 546.351746,685.855652 540.834839,688.342468 
	C523.823425,696.010437 507.168304,694.832092 491.151337,685.262939 
	C487.473358,683.065613 484.615509,680.042297 483.433868,675.808228 
	C482.830475,673.646179 481.346558,672.576965 479.554657,671.545288 
	C437.970520,647.603149 393.546265,631.676758 346.071594,624.531311 
	C314.660187,619.803650 283.091125,618.950134 251.447922,621.808105 
	C248.369217,622.086121 247.183762,621.403503 247.331894,618.141235 
	C247.802582,607.775269 247.729645,607.902466 258.276031,607.660828 
	C274.254059,607.294800 290.184784,606.615234 306.213409,607.437073 
	C338.468506,609.090759 370.054016,614.159790 401.011047,623.263916 
	C435.601562,633.436768 468.129730,647.970520 497.701263,668.787598 
	C464.713470,639.383850 427.048370,617.902527 385.488190,603.031006 
	C344.163483,588.243958 301.378845,581.028137 257.847504,579.104614 
	C257.009155,576.225708 258.762756,575.060303 259.853760,573.743042 
	C268.993530,562.708008 278.148499,551.684387 287.418701,540.758911 
	C291.693787,535.720581 293.561066,535.777893 299.167603,540.710144 
	C291.521393,551.007446 281.926880,559.796753 274.084747,571.066040 
	C282.474487,571.979797 290.014374,572.716003 297.532166,573.633240 
	C355.789398,580.741333 410.008636,599.163452 459.239685,631.497070 
	C477.004150,643.164307 493.096985,656.845581 507.883301,672.088196 
	C508.809387,673.042847 509.769623,673.966797 510.751556,674.863953 
	C511.412476,675.467773 512.195251,675.665710 513.046753,675.235413 
	C514.180481,674.662537 514.179749,673.685120 513.893616,672.663879 
	C513.670044,671.865662 513.455627,671.034668 513.054199,670.320984 
	C502.444550,651.457764 492.810364,631.942932 479.820007,614.581116 
	C460.217041,588.381287 435.926117,567.291931 407.319397,551.241638 
	C395.812012,544.785217 383.910461,539.227173 371.571625,534.574646 
	C368.680664,533.484558 366.220093,533.042480 363.192261,535.038147 
	C358.563965,538.088684 352.725952,536.019897 350.533081,531.256836 
	C348.415314,526.656860 350.494690,520.884888 354.958008,518.973877 
	C359.939178,516.841125 365.046997,519.104065 366.823029,524.688232 
	C367.657074,527.310669 368.710205,528.921448 371.448608,529.848145 
	C398.770782,539.093689 423.052307,553.747498 445.410736,571.773743 
	C446.317200,572.504639 447.214264,573.249817 448.157898,573.929626 
	C448.353180,574.070312 448.736450,573.950073 449.748840,573.950073 
	C447.653534,571.301270 446.005249,568.862793 444.011566,566.750305 
	C411.225250,532.009827 373.919067,503.304840 330.918304,482.220673 
	C328.926666,481.244141 327.286011,480.239014 325.189880,482.436310 
	C313.113190,495.095886 300.897888,507.623169 288.745819,520.210999 
	C288.067383,520.913757 287.327637,521.664551 287.809906,524.004333 
	C378.927948,545.892395 455.064301,592.040466 510.452209,669.626953 
	C507.906891,669.965881 506.833282,668.065491 505.627106,666.532654 
	C461.913269,610.978333 406.198853,572.088318 340.239258,547.448364 
	C319.779266,539.805237 298.877228,533.633545 277.503754,529.084412 
	C276.083008,528.782043 274.540741,528.567627 272.715515,526.412842 
	C288.254425,510.316376 303.871918,494.138519 319.644440,477.800049 
	C315.194733,473.499695 309.148743,473.240753 305.032623,469.866699 
	C304.840149,467.113403 306.800354,466.123047 308.279114,464.916412 
	C329.714691,447.424713 351.397034,430.253265 374.170685,414.510162 
	C374.991852,413.942505 375.805054,413.339417 376.694550,412.899567 
	C378.435181,412.038849 380.026917,412.445526 381.095703,414.007202 
	C382.250916,415.695129 380.973572,416.851959 379.794952,417.781555 
	C375.608643,421.083282 371.382141,424.334930 367.137878,427.562103 
	C352.017670,439.058929 336.873413,450.524445 322.528717,462.997681 
	C321.031982,464.299103 319.289001,465.387695 318.726074,468.216187 
	C406.350403,509.377960 473.836761,571.201660 513.060425,661.464478 
	C512.804565,653.620422 510.363708,646.305481 508.001923,639.006836 
	C501.169495,617.892334 493.428741,597.155396 481.453278,578.290283 
	C479.133911,574.636414 476.510468,571.176819 474.077423,567.593567 
	C471.463196,563.743530 468.657288,560.814453 463.222565,561.181519 
	C458.936157,561.471069 456.375671,558.036987 456.171448,554.130188 
	C455.877716,548.511841 453.862946,545.316895 447.949127,545.141724 
	C446.299072,545.092896 444.973999,543.933533 444.930695,542.304138 
	C444.838501,538.833679 442.428741,537.007629 440.271667,534.964966 
	C420.637268,516.372131 400.346130,498.622620 376.652863,485.210938 
	C373.417145,483.379333 370.606415,481.893524 366.516571,483.738495 
	C362.253845,485.661377 357.267944,482.395020 356.017029,477.857361 
	C354.794495,473.422852 357.313232,468.798981 361.606354,467.596497 
	C366.569641,466.206268 371.007690,468.752594 371.950348,474.150909 
	C372.468353,477.117554 373.644867,478.921478 376.252350,480.262604 
	C398.265228,491.584991 416.644104,507.785736 434.921967,524.117432 
	C441.884644,530.338745 448.534393,536.879883 454.782898,543.812073 
	C456.686829,545.924316 458.247681,546.548218 461.193085,545.397278 
	C468.235321,542.645264 474.051147,547.532288 472.896698,555.069214 
	C472.559357,557.271606 472.826935,558.901672 474.158356,560.587769 
	C492.748077,584.128967 504.164337,611.148438 512.460327,639.679016 
	C512.537720,639.945312 512.847778,640.143860 512.951050,640.261841 
	C516.821838,615.359924 508.733978,592.881104 498.298615,570.893738 
	C497.224030,568.629517 495.336243,568.079712 493.076752,567.681641 
	C487.345917,566.672058 485.328888,563.956421 486.329254,558.285278 
	C486.722839,556.053894 486.322845,554.370483 484.947510,552.768616 
	C472.044281,537.740173 457.153076,525.044983 440.299377,514.634033 
	C438.696045,513.643616 437.568451,514.379822 436.151611,514.957275 
	C431.584930,516.818604 427.421265,515.385437 426.067444,511.660736 
	C424.450378,507.211792 426.664398,502.537292 431.031799,501.179382 
	C435.153229,499.897949 439.571167,502.419403 439.923279,507.368500 
	C440.280396,512.387390 444.333435,512.901794 447.113007,514.745056 
	C459.918274,523.236755 471.544647,533.126892 483.321472,543.372742 
	C481.980713,541.106628 480.695160,538.805420 479.283813,536.584106 
	C477.854919,534.335205 476.372192,532.113342 474.791748,529.968994 
	C461.866821,512.432434 446.648865,497.075531 430.028778,483.065613 
	C426.973602,480.490265 423.974579,478.313995 419.334229,479.135437 
	C415.384674,479.834656 412.508575,477.367981 412.259338,473.180542 
	C412.048340,469.636749 413.195435,466.467529 417.368713,465.777405 
	C421.583252,465.080505 425.049469,466.571808 425.608582,470.937500 
	C426.142456,475.105988 428.563141,477.233307 431.483887,479.566681 
	C450.875610,495.058746 467.830475,512.837708 481.590759,533.568787 
	C482.312958,534.656860 483.107971,535.696594 484.042786,537.001160 
	C487.178650,534.193420 485.293884,531.723267 484.002899,529.391602 
	C476.305115,515.488037 466.997070,502.701874 456.714752,490.621185 
	C441.848724,473.155121 425.452148,457.368317 406.064392,444.896606 
	C403.787659,443.432007 401.976318,442.350189 398.850067,443.784912 
	C393.629730,446.180634 388.089111,443.290405 386.858887,438.368622 
	C385.465759,432.795197 388.335876,427.682983 393.384674,426.744965 
	C399.523224,425.604523 403.675568,428.714050 404.197357,435.280975 
	C404.392853,437.741638 405.271088,439.220245 407.271179,440.509888 
	C441.032135,462.278534 466.720245,491.609253 487.007721,525.949219 
	C488.718842,528.845642 490.434662,530.675720 494.223236,531.013672 
	C499.760071,531.507385 502.794678,536.820496 500.673126,542.164124 
	C499.342682,545.515137 499.859192,548.228271 501.108704,551.220764 
	C505.959808,562.839111 510.090485,574.713501 513.407410,586.903625 
	C514.528931,576.026733 514.038574,565.229065 513.572876,554.470032 
	C512.896667,538.845398 511.330109,523.288635 507.776978,507.991272 
	C506.258698,501.454437 503.573334,495.374451 501.047058,489.217163 
	C499.699402,485.932648 497.471741,484.469757 493.774078,484.321198 
	C471.178040,483.413300 455.516235,472.188416 446.641541,451.592651 
	C441.841217,440.452393 438.845245,428.540710 432.322021,418.128143 
	C432.106781,417.784515 432.294739,417.188324 432.294739,416.351257 
	C438.208221,414.811768 444.122070,415.778992 449.925537,416.732239 
	C469.702118,419.980499 487.081085,427.380493 497.688965,445.748260 
	C502.115387,453.412720 504.303589,463.643799 502.991577,472.662689 
	C497.692444,463.632568 490.848022,456.064728 482.415649,449.946259 
	C492.269409,461.297882 500.111420,474.035522 508.306610,487.069397 
	C513.787354,456.875549 527.902893,431.202698 546.029663,407.421722 
	C529.589478,420.742706 519.081299,438.144958 511.614655,457.914978 
	C508.900421,456.144531 509.853821,453.764496 509.625031,451.832703 
	C505.262054,414.991119 520.867920,388.407104 551.905090,369.806580 
	C568.111145,360.094238 586.081970,356.135376 604.540039,353.833191 
	C605.985840,353.652832 607.534241,353.450989 608.887390,354.305878 
	C609.972168,355.656097 609.282227,356.904938 608.636292,358.029449 
	C601.121155,371.112793 598.108887,385.634216 595.216187,400.174957 
	C590.203308,425.373352 578.396729,445.683105 554.259521,457.004211 
	C545.507019,461.109344 536.459167,464.574951 526.671448,465.304108 
	C523.624390,465.531097 522.977539,467.536926 522.246765,469.857788 
	C517.474670,485.013367 515.639954,500.210175 519.171692,516.059509 
	C522.903748,532.807800 524.449280,549.896667 524.380493,567.094238 
	C524.374878,568.506775 524.549438,569.919983 524.712646,572.459167 
	C527.076172,567.447571 527.509888,563.141846 528.445557,559.014648 
	C530.587585,549.566406 533.707275,540.445129 537.169067,531.432678 
	C538.285706,528.525696 538.666687,526.018982 537.372070,522.879456 
	C534.988220,517.098633 538.221619,512.211121 544.520081,511.714600 
	C547.101990,511.511078 548.381775,510.273346 549.533020,508.306183 
	C565.681824,480.711975 586.799622,457.670135 612.967041,439.290222 
	C614.972961,437.881287 615.575134,436.218567 615.669800,433.837006 
	C615.911377,427.760803 620.297180,423.978455 625.711304,424.825378 
	C630.878113,425.633636 634.309143,430.821930 633.071716,435.955475 
	C631.783752,441.298553 626.597229,444.204559 621.035400,442.094574 
	C618.063843,440.967255 616.266907,442.205963 614.260620,443.676086 
	C591.997803,459.989197 573.046143,479.457489 558.088013,502.720459 
	C556.466064,505.242950 554.976868,507.853516 553.291504,510.331696 
	C551.893372,512.387451 551.445740,514.240967 552.381836,516.804565 
	C554.355591,522.209656 551.798645,526.677307 545.989075,528.092834 
	C543.801575,528.625793 542.433655,529.422119 541.618530,531.521729 
	C532.532593,554.925171 526.133057,578.939148 524.965820,604.153931 
	C524.921570,605.108276 525.046509,606.070496 525.907715,607.205933 
	C528.385437,599.370178 530.707703,591.481140 533.367798,583.707825 
	C544.872131,550.089844 561.745483,519.474670 584.946716,492.472076 
	C592.334412,483.873962 600.090332,475.604736 608.827087,468.330902 
	C610.754883,466.725922 611.620605,464.896301 611.687195,462.312622 
	C611.811768,457.475861 614.777222,454.670837 619.088745,454.781464 
	C622.838440,454.877655 626.149719,458.510040 626.122437,462.497406 
	C626.093628,466.712189 623.047180,469.322968 617.988403,469.199524 
	C615.759949,469.145142 613.725708,469.142548 611.948120,470.799896 
	C589.127991,492.077087 569.064270,515.505798 554.963074,543.604431 
	C554.890198,543.749695 554.865967,543.919312 554.818970,544.077576 
	C563.938477,541.552368 563.930969,541.546509 569.560486,534.298767 
	C588.642639,509.731293 611.136719,488.887604 637.462769,472.256409 
	C639.991699,470.658783 641.601746,469.029785 641.915466,465.687347 
	C642.426270,460.245239 647.275879,457.033386 652.225159,458.126007 
	C657.704407,459.335602 660.802551,464.897736 659.146667,470.552124 
	C657.863892,474.932465 652.307190,477.917694 647.790161,475.704865 
	C643.863037,473.781036 641.247620,475.063843 638.234009,477.067657 
	C625.015442,485.857208 612.754517,495.857727 601.149963,506.647034 
	C589.812622,517.187866 579.053284,528.278870 570.095520,541.002258 
	C568.379700,543.439453 567.379944,545.328308 568.711609,548.587402 
	C570.881897,553.899353 567.066223,559.132996 561.183289,559.202942 
	C557.822266,559.242920 556.114075,560.688599 554.524963,563.355530 
	C547.337280,575.418640 541.200806,587.946167 536.772034,601.301025 
	C536.086121,603.369385 535.766663,605.800049 533.310608,607.732239 
	C532.792175,603.142517 534.197083,599.392395 535.339355,595.770447 
	C539.208496,583.502502 544.047180,571.601257 551.333069,560.915161 
	C553.591614,557.602600 553.940186,554.707092 551.313049,550.293945 
	C537.425781,578.691040 527.062927,607.291199 523.115112,637.921570 
	C523.675232,638.114441 524.235352,638.307251 524.795471,638.500122 
	C527.159546,632.569275 529.495544,626.627136 531.893738,620.710083 
	C536.479065,609.396606 542.314575,598.741455 549.065979,588.589355 
	C550.501648,586.430481 551.257446,584.431091 550.876648,581.661316 
	C550.148071,576.361328 552.500244,573.419128 557.756470,572.660889 
	C559.967407,572.341980 561.363220,571.385071 562.618469,569.668823 
	C573.886536,554.261780 586.786499,540.380737 601.587097,528.298889 
	C603.660583,526.606262 604.577271,524.553711 604.696533,521.821594 
	C604.931519,516.441284 608.953735,512.559998 613.431335,512.993286 
	C618.417603,513.475830 622.097595,518.162109 621.466309,523.225403 
	C620.868225,528.022034 616.501892,531.248474 611.188660,530.074463 
	C608.319153,529.440491 606.503601,530.169617 604.457947,531.866211 
	C590.164368,543.720886 577.194519,556.830200 566.076660,571.742737 
	C564.658936,573.644348 564.340393,575.346558 564.901855,577.726379 
	C566.271545,583.531311 564.004822,586.549133 557.980896,587.284973 
	C556.032043,587.523010 554.477844,587.936340 553.385132,589.707214 
	C541.172485,609.498169 530.855103,630.141113 524.963867,652.775696 
	C524.549500,654.367676 524.410706,656.031433 524.416077,657.845459 
	C566.907166,571.533875 631.813538,508.346100 719.283142,468.492981 
	C718.876221,465.285339 716.359741,464.210510 714.536438,462.694702 
	C696.719421,447.882446 678.281860,433.865967 659.642639,420.111176 
	C659.240417,419.814270 658.817200,419.541809 658.439148,419.216858 
	C656.874207,417.872192 654.257385,416.819885 656.270508,414.125641 
	C658.024231,411.778595 659.833984,413.468842 661.464844,414.535553 
	C665.927124,417.454071 670.445251,420.299316 674.778320,423.401245 
	C693.348145,436.695160 711.417725,450.637695 728.776855,465.487518 
	C730.028992,466.558594 731.434570,467.531311 732.057678,469.818329 
	C727.915161,473.646210 721.723206,474.295807 716.948181,477.973938 
	C732.893555,494.276428 749.211304,509.879120 764.052185,526.864258 
	C762.372864,529.102112 760.275269,529.051270 758.394958,529.480774 
	C715.788879,539.211670 674.883362,553.445129 636.743835,575.112549 
	C595.652405,598.457031 560.440491,628.547424 531.658752,666.098450 
	C529.550415,668.849243 527.716919,671.908203 524.346069,673.539673 
	C525.017456,671.556824 525.773438,669.672058 526.925049,668.072083 
	C544.613281,643.498291 564.478210,620.901184 587.995667,601.705505 
	C629.106079,568.149902 675.341064,544.538391 726.558777,530.675781 
	C734.660217,528.483093 742.771484,526.326294 751.522095,523.980225 
	C749.745117,522.018738 748.575684,520.636658 747.311768,519.347107 
	C735.999329,507.805939 724.527832,496.415344 713.445068,484.658112 
	C710.630188,481.671997 708.737793,481.234772 705.059082,483.074707 
	C671.263489,499.977814 640.992676,521.863831 613.408936,547.544556 
	C604.344299,555.983826 595.759216,564.925171 587.829651,575.328125 
	C588.814087,574.945557 589.168945,574.902405 589.391296,574.707886 
	C611.662415,555.220337 636.150940,539.406067 664.216980,529.517761 
	C666.602539,528.677246 667.901733,527.123413 668.686279,524.634644 
	C670.520569,518.816345 675.667542,516.331604 680.716431,518.485779 
	C685.622986,520.579224 687.635986,526.095764 685.290771,531.021118 
	C682.836975,536.174377 677.167786,538.027588 672.297363,534.588806 
	C669.632019,532.706909 667.671265,532.992859 665.029724,534.013916 
	C617.750610,552.287720 580.333069,582.929626 551.303528,624.230469 
	C541.029541,638.847473 532.531555,654.502502 523.751526,670.001587 
	C522.470459,672.262939 522.542419,672.303711 524.017456,673.977173 
M495.990692,550.342285 
	C494.854614,547.388062 492.740662,547.106079 489.848816,548.022644 
	C490.204865,550.612366 489.799713,553.334106 493.413177,553.582153 
	C495.241943,553.707703 496.871460,553.571838 495.990692,550.342285 
M500.735291,562.706055 
	C500.614624,562.595581 500.510559,562.443054 500.368439,562.386780 
	C500.234436,562.333618 499.944885,562.333496 499.920258,562.392334 
	C497.688202,567.722717 503.280090,570.190491 504.670593,574.233215 
	C503.454071,570.568420 502.237579,566.903564 500.735291,562.706055 
z"/>
<path fill="#000000" opacity="1.000000" stroke="none" 
	d="
M459.274475,350.135925 
	C461.447296,346.385986 461.414368,342.294403 462.854279,337.282806 
	C465.937256,342.955505 465.478973,348.639160 469.284302,352.391327 
	C473.108307,356.162018 478.759033,355.784698 483.646881,358.723694 
	C471.042816,359.778473 464.554810,366.420532 463.701050,379.518494 
	C462.032623,366.466675 455.437897,359.552734 442.381958,358.972565 
	C448.146301,355.507111 455.445251,356.540436 459.274475,350.135925 
z"/>
<path fill="#000000" opacity="1.000000" stroke="none" 
	d="
M636.797852,326.365692 
	C640.316406,328.116974 644.184509,327.671387 647.797974,330.478729 
	C636.127258,331.267822 629.574036,337.154968 628.186890,349.385529 
	C627.184021,337.466522 620.966492,331.613586 609.401917,330.055481 
	C620.452087,328.198792 627.273376,323.146820 627.596680,311.424133 
	C631.176086,316.628510 630.065857,323.651154 636.797852,326.365692 
z"/>
<path fill="#000000" opacity="1.000000" stroke="none" 
	d="
M696.198669,468.135620 
	C694.987427,475.761963 690.576599,478.475342 684.268677,475.452148 
	C681.785767,474.262207 679.922363,474.519012 677.771851,475.723022 
	C672.841736,478.483307 667.888855,481.203491 662.921875,483.896942 
	C661.533508,484.649811 660.334656,486.077637 658.244629,485.363770 
	C657.539185,483.254730 659.208801,482.485565 660.517944,481.659302 
	C664.592834,479.087494 668.651489,476.476929 672.846008,474.111145 
	C676.724365,471.923676 680.676086,470.382446 681.473328,464.865295 
	C681.962463,461.480560 685.587708,460.421112 689.068298,460.652649 
	C693.500610,460.947449 695.396057,463.770630 696.198669,468.135620 
z"/>
<path fill="#000000" opacity="1.000000" stroke="none" 
	d="
M398.810425,393.127167 
	C397.903412,386.826965 391.965607,387.454468 388.179321,385.053894 
	C397.311249,379.734589 397.311249,379.734589 401.383026,370.608917 
	C402.547729,378.562286 405.509125,383.912231 413.904724,384.750366 
	C406.758820,386.492004 401.766266,389.637970 401.941711,397.221436 
	C398.848145,396.995148 399.488647,394.825562 398.810425,393.127167 
z"/>
<path fill="#000000" opacity="1.000000" stroke="none" 
	d="
M639.182129,377.749695 
	C641.353638,380.979431 645.123352,380.897125 649.457275,383.616577 
	C641.339417,384.311859 637.457642,387.941895 636.394531,395.046997 
	C634.334595,388.760406 631.445068,383.865417 623.243225,383.926178 
	C626.645996,380.433472 630.149597,380.962799 632.307068,378.884888 
	C634.404236,376.865112 634.222717,373.723053 635.954834,370.960052 
	C637.997131,373.041290 637.915222,375.528137 639.182129,377.749695 
z"/>
<path fill="#000000" opacity="1.000000" stroke="none" 
	d="
M656.918640,441.431824 
	C652.737183,441.266693 650.522339,439.342957 650.843323,435.478546 
	C651.161072,431.653015 653.430542,429.511383 657.435425,429.479248 
	C660.818237,429.452087 662.853821,431.185059 663.168030,434.436615 
	C663.567322,438.569122 661.628357,441.087646 656.918640,441.431824 
z"/>
<path fill="#000000" opacity="1.000000" stroke="none" 
	d="
M359.330872,452.737854 
	C357.418030,449.012390 358.149933,446.104034 361.466492,444.383850 
	C364.570251,442.774017 367.333588,443.958344 369.251953,446.754211 
	C370.832703,449.058014 370.948425,451.654938 368.841370,453.580170 
	C365.744415,456.409851 362.506897,455.886658 359.330872,452.737854 
z"/>
<path fill="#000000" opacity="1.000000" stroke="none" 
	d="
M644.777588,449.539001 
	C641.959045,449.892944 640.307007,448.835022 639.518005,446.522797 
	C638.988770,444.971802 639.430664,443.596222 640.651611,442.546906 
	C641.890930,441.481781 643.369934,441.454895 644.806641,442.030701 
	C647.823242,443.239594 647.946167,446.314148 644.777588,449.539001 
z"/>
<path fill="#000000" opacity="1.000000" stroke="none" 
	d="
M404.555420,478.594360 
	C402.769714,481.985168 400.423950,483.158478 397.685303,480.531403 
	C395.848724,478.769745 396.420197,476.484131 398.215118,474.811829 
	C400.664032,472.530212 403.353302,473.997070 404.555420,478.594360 
z"/>
<path fill="#000000" opacity="1.000000" stroke="none" 
	d="
M627.759033,454.233337 
	C628.953003,451.123596 630.986389,450.606110 633.449585,451.766113 
	C635.316650,452.645325 635.968811,454.358154 635.488403,456.331390 
	C635.051514,458.126007 633.776123,459.251862 631.903198,459.107727 
	C629.259338,458.904205 627.642090,457.496246 627.759033,454.233337 
z"/>
<path fill="#000000" opacity="1.000000" stroke="none" 
	d="
M385.510254,468.261139 
	C386.477539,465.504211 388.095825,464.376526 390.615662,465.284088 
	C392.566864,465.986877 393.521637,467.506012 393.075470,469.596497 
	C392.646027,471.608612 391.236633,472.872894 389.220978,472.846344 
	C386.639374,472.812347 385.360199,471.232422 385.510254,468.261139 
z"/>
<path fill="#000000" opacity="1.000000" stroke="none" 
	d="
M420.148132,497.086426 
	C420.986420,494.244965 422.446869,492.567688 425.264771,493.272491 
	C426.996613,493.705658 428.096222,495.078156 428.003021,496.937012 
	C427.900299,498.985321 426.579865,500.281555 424.654510,500.729645 
	C422.004364,501.346527 420.656006,499.900635 420.148132,497.086426 
z"/>
<path fill="#000000" opacity="1.000000" stroke="none" 
	d="
M376.317871,456.079895 
	C379.303162,455.562683 380.862823,456.678101 381.231567,459.260834 
	C381.525757,461.321350 380.540436,462.789459 378.687073,463.600006 
	C376.888184,464.386719 375.306396,463.691986 374.401093,462.174561 
	C373.001678,459.829102 373.623962,457.751312 376.317871,456.079895 
z"/>
<path fill="#000000" opacity="1.000000" stroke="none" 
	d="
M415.132385,490.074341 
	C412.729370,491.749817 410.740021,491.569489 409.097443,489.660431 
	C407.875641,488.240448 407.902466,486.615784 409.055298,485.117157 
	C410.214172,483.610596 411.937042,483.293793 413.537079,483.841766 
	C416.637177,484.903503 416.835114,487.146545 415.132385,490.074341 
z"/>
</svg>